<svg width="263" height="259" viewBox="0 0 263 259" fill="none" xmlns="http://www.w3.org/2000/svg">
<path d="M133 0C132.973 0.316667 132.948 0.633333 132.924 0.95C132.704 3.8 132.57 6.65 132.521 9.5C132.507 10.3118 132.5 11.1237 132.5 11.9355C132.5 13.9737 132.625 16.0118 132.875 18.05C132.913 18.3667 132.955 18.6833 133 19C133.045 18.6833 133.087 18.3667 133.125 18.05C133.375 16.0118 133.5 13.9737 133.5 11.9355C133.5 11.1237 133.493 10.3118 133.479 9.5C133.43 6.65 133.296 3.8 133.076 0.95C133.052 0.633333 133.027 0.316667 133 0Z" fill="#0F0F12" fill-opacity="0.5"/>
<path d="M18.9999 123C18.6833 122.972 18.3667 122.946 18.0502 122.92C15.201 122.689 12.3516 122.544 9.5018 122.484C8.69001 122.467 7.8782 122.457 7.06636 122.454C5.02822 122.446 2.9896 122.563 0.950495 122.805C0.633682 122.843 0.316857 122.883 1.94907e-05 122.927C0.316512 122.973 0.633014 123.016 0.949528 123.056C2.98671 123.313 5.02436 123.446 7.0625 123.454C7.87434 123.457 8.68621 123.453 9.4981 123.443C12.3483 123.405 15.1988 123.282 18.0496 123.073C18.3663 123.05 18.6831 123.025 18.9999 123Z" fill="#0F0F12" fill-opacity="0.5"/>
<path d="M215 126C212.031 125.772 209 125.553 206.029 125.342C179.912 123.527 153.711 122.013 127.511 121.551C118.992 121.425 110.467 121.445 101.935 121.529C82.6006 121.73 63.2946 122.421 43.9726 123.475C40.9696 123.64 37.9415 123.815 35 124C37.9473 123.994 40.9801 123.987 43.9871 123.977C63.3351 123.921 82.6406 123.729 101.955 123.529C110.478 123.445 118.992 123.391 127.489 123.449C153.633 123.7 179.855 124.683 206.012 125.647C208.989 125.76 212.024 125.878 215 126Z" fill="#0F0F12"/>
<mask id="path-4-inside-1_209_75" fill="white">
<path d="M187.858 53.1008C229.151 84.0002 240.034 147.305 203 187C167.34 219.255 117.254 233.534 75.9617 202.635C34.669 171.735 30.5026 115.453 61.402 74.1607C92.3014 32.8681 146.566 22.2014 187.858 53.1008Z"/>
</mask>
<path d="M188.757 51.8999C188.158 52.7005 187.559 53.5012 186.96 54.3018C194.668 59.8298 201.484 66.6287 207.119 74.3223C231.525 106.608 232.106 156.975 203 187C202.878 187.111 202.755 187.221 202.633 187.331C202.317 187.614 202.001 187.896 201.683 188.177C187.705 200.506 171.362 210.4 153.445 215.739C128.078 223.702 98.9754 219.746 77.5208 203.777C76.9997 203.403 76.48 203.023 75.9617 202.635C35.64 174.54 31.1432 113.031 60.5224 75.3532C60.8124 74.9543 61.1056 74.5569 61.4021 74.1608C83.5778 43.2374 126.218 27.1793 162.096 40.5648C171.086 43.7386 179.471 48.4436 186.96 54.3018C187.559 53.5012 188.158 52.7005 188.757 51.8999C180.79 46.1828 172.001 41.6822 162.705 38.7441C125.569 26.3896 83.5863 43.3239 61.4019 74.1606C61.1055 74.5568 60.8124 74.9543 60.5224 75.3532C31.1432 113.031 35.64 174.54 75.9617 202.635C76.48 203.023 76.9997 203.403 77.5208 203.777C98.9754 219.746 128.078 223.702 153.445 215.739C171.362 210.4 187.705 200.506 201.683 188.177C202.001 187.896 202.317 187.614 202.633 187.331C202.755 187.221 202.878 187.111 203 187C232.01 157.012 232.466 106.96 208.724 73.1849C203.226 65.1513 196.495 57.9248 188.757 51.8999ZM186.96 54.3018L188.757 51.8999L186.96 54.3018Z" fill="#0F0F12" fill-opacity="0.5" mask="url(#path-4-inside-1_209_75)"/>
<path d="M132.5 25C164.352 25 192.875 39.2513 212.042 61.7246C211.592 62.0132 211.149 62.3103 210.712 62.6162C210.362 62.8614 210.016 63.1128 209.674 63.3691C209.107 63.7943 208.574 64.2639 208.072 64.7764C189.824 43.4889 162.737 30 132.5 30C77.5477 30 33 74.5477 33 129.5C33 184.452 77.5477 229 132.5 229C187.452 229 232 184.452 232 129.5C232 105.029 223.166 82.6213 208.514 65.292C209.132 64.9593 209.719 64.5854 210.274 64.1689C210.616 63.9126 210.955 63.6512 211.288 63.3838C211.716 63.0406 212.136 62.6867 212.55 62.3252C227.809 80.4894 237 103.921 237 129.5C237 187.214 190.214 234 132.5 234C74.7862 234 28 187.214 28 129.5C28 71.7862 74.7862 25 132.5 25ZM208.514 65.292C208.177 65.4734 207.83 65.6432 207.475 65.7998C207.318 65.8687 207.16 65.9359 207 66C207.106 65.8642 207.215 65.7306 207.325 65.5996C207.565 65.3136 207.815 65.0395 208.072 64.7764C208.22 64.9481 208.368 65.1192 208.514 65.292ZM214.646 60.3613C213.968 61.0438 213.269 61.6977 212.55 62.3252C212.381 62.1244 212.212 61.9241 212.042 61.7246C212.858 61.201 213.696 60.7061 214.555 60.2393C214.703 60.1588 214.851 60.0787 215 60C214.883 60.1212 214.764 60.2418 214.646 60.3613Z" fill="#0F0F12"/>
</svg>
