<svg width="262" height="262" viewBox="0 0 262 262" fill="none" xmlns="http://www.w3.org/2000/svg">
<path d="M133 0C132.973 0.316667 132.948 0.633333 132.924 0.95C132.704 3.8 132.57 6.65 132.521 9.5C132.507 10.3118 132.5 11.1237 132.5 11.9355C132.5 13.9737 132.625 16.0118 132.875 18.05C132.913 18.3667 132.955 18.6833 133 19C133.045 18.6833 133.087 18.3667 133.125 18.05C133.375 16.0118 133.5 13.9737 133.5 11.9355C133.5 11.1237 133.493 10.3118 133.479 9.5C133.43 6.65 133.296 3.8 133.076 0.95C133.052 0.633333 133.027 0.316667 133 0Z" fill="#EAEAEA" fill-opacity="0.5"/>
<path d="M18.9999 123C18.6833 122.972 18.3667 122.946 18.0502 122.92C15.201 122.689 12.3516 122.544 9.5018 122.484C8.69001 122.467 7.8782 122.457 7.06636 122.454C5.02822 122.446 2.9896 122.563 0.950495 122.805C0.633682 122.843 0.316857 122.883 1.94907e-05 122.927C0.316512 122.973 0.633014 123.016 0.949528 123.056C2.98671 123.313 5.02436 123.446 7.0625 123.454C7.87434 123.457 8.68621 123.453 9.4981 123.443C12.3483 123.405 15.1988 123.282 18.0496 123.073C18.3663 123.05 18.6831 123.025 18.9999 123Z" fill="#EAEAEA" fill-opacity="0.5"/>
<path d="M215 124.527C212.031 124.3 209 124.08 206.029 123.869C179.912 122.054 153.711 120.54 127.511 120.079C118.992 119.953 110.467 119.973 101.935 120.056C82.6006 120.257 63.2946 120.949 43.9726 122.003C40.9696 122.168 37.9415 122.342 35 122.527C37.9473 122.522 40.9801 122.514 43.9871 122.504C63.3351 122.449 82.6406 122.257 101.955 122.056C110.478 121.973 118.992 121.919 127.489 121.976C153.633 122.228 179.855 123.211 206.012 124.174C208.989 124.288 212.024 124.406 215 124.527Z" fill="#EAEAEA"/>
<mask id="path-4-inside-1_207_73" fill="white">
<path d="M186.858 56.1008C228.151 87.0002 239.034 150.305 202 190C166.34 222.255 116.254 236.534 74.9617 205.635C33.669 174.735 29.5026 118.453 60.402 77.1607C91.3014 35.8681 145.566 25.2014 186.858 56.1008Z"/>
</mask>
<path d="M187.757 54.8999C187.158 55.7005 186.559 56.5012 185.96 57.3018C193.668 62.8298 200.484 69.6287 206.119 77.3223C230.525 109.608 231.106 159.975 202 190C201.878 190.111 201.755 190.221 201.633 190.331C201.317 190.614 201.001 190.896 200.683 191.177C186.705 203.506 170.362 213.4 152.445 218.739C127.078 226.702 97.9754 222.746 76.5208 206.777C75.9997 206.403 75.48 206.023 74.9617 205.635C34.64 177.54 30.1432 116.031 59.5224 78.3532C59.8124 77.9543 60.1056 77.5569 60.4021 77.1608C82.5778 46.2374 125.218 30.1793 161.096 43.5648C170.086 46.7386 178.471 51.4436 185.96 57.3018C186.559 56.5012 187.158 55.7005 187.757 54.8999C179.79 49.1828 171.001 44.6822 161.705 41.7441C124.569 29.3896 82.5863 46.3239 60.4019 77.1606C60.1055 77.5568 59.8124 77.9543 59.5224 78.3532C30.1432 116.031 34.64 177.54 74.9617 205.635C75.48 206.023 75.9997 206.403 76.5208 206.777C97.9754 222.746 127.078 226.702 152.445 218.739C170.362 213.4 186.705 203.506 200.683 191.177C201.001 190.896 201.317 190.614 201.633 190.331C201.755 190.221 201.878 190.111 202 190C231.01 160.012 231.466 109.96 207.724 76.1849C202.226 68.1513 195.495 60.9248 187.757 54.8999ZM185.96 57.3018L187.757 54.8999L185.96 57.3018Z" fill="#EAEAEA" fill-opacity="0.5" mask="url(#path-4-inside-1_207_73)"/>
<path d="M132.5 25C164.352 25 192.875 39.2513 212.042 61.7246C211.592 62.0132 211.149 62.3103 210.712 62.6162C210.362 62.8614 210.016 63.1128 209.674 63.3691C209.107 63.7943 208.574 64.2639 208.072 64.7764C189.824 43.4889 162.737 30 132.5 30C77.5477 30 33 74.5477 33 129.5C33 184.452 77.5477 229 132.5 229C187.452 229 232 184.452 232 129.5C232 105.029 223.166 82.6213 208.514 65.292C209.132 64.9593 209.719 64.5854 210.274 64.1689C210.616 63.9126 210.955 63.6512 211.288 63.3838C211.716 63.0406 212.136 62.6867 212.55 62.3252C227.809 80.4894 237 103.921 237 129.5C237 187.214 190.214 234 132.5 234C74.7862 234 28 187.214 28 129.5C28 71.7862 74.7862 25 132.5 25ZM208.514 65.292C208.177 65.4734 207.83 65.6432 207.475 65.7998C207.318 65.8687 207.16 65.9359 207 66C207.106 65.8642 207.215 65.7306 207.325 65.5996C207.565 65.3136 207.815 65.0395 208.072 64.7764C208.22 64.9481 208.368 65.1192 208.514 65.292ZM214.646 60.3613C213.968 61.0438 213.269 61.6977 212.55 62.3252C212.381 62.1244 212.212 61.9241 212.042 61.7246C212.858 61.201 213.696 60.7061 214.555 60.2393C214.703 60.1588 214.851 60.0787 215 60C214.883 60.1212 214.764 60.2418 214.646 60.3613Z" fill="#EAEAEA"/>
</svg>
